<mxfile host="app.diagrams.net" agent="Mozilla/5.0 (Windows NT 10.0; Win64; x64) AppleWebKit/537.36 (KHTML, like Gecko) Chrome/136.0.0.0 Safari/537.36" version="26.2.14">
  <diagram name="Page-1" id="3TiYvkhnyo48Lv2NwWIT">
    <mxGraphModel dx="2203" dy="1805" grid="1" gridSize="10" guides="1" tooltips="1" connect="1" arrows="1" fold="1" page="1" pageScale="1" pageWidth="827" pageHeight="1169" math="0" shadow="0">
      <root>
        <mxCell id="0" />
        <mxCell id="1" parent="0" />
        <mxCell id="r5QFwszWZXi0YmvVdmCE-2" value="&lt;b&gt;&lt;font style=&quot;font-size: 24px;&quot;&gt;Nomenclature&lt;/font&gt;&lt;/b&gt;" style="text;html=1;align=center;verticalAlign=middle;whiteSpace=wrap;rounded=0;" vertex="1" parent="1">
          <mxGeometry x="-50" y="40" width="120" height="30" as="geometry" />
        </mxCell>
        <mxCell id="r5QFwszWZXi0YmvVdmCE-4" value="ACTION PROGRAMME" style="rounded=0;whiteSpace=wrap;html=1;" vertex="1" parent="1">
          <mxGeometry x="310" y="20" width="120" height="60" as="geometry" />
        </mxCell>
        <mxCell id="r5QFwszWZXi0YmvVdmCE-5" value="DONNEE&lt;div&gt;FICHIER&lt;/div&gt;" style="shape=cylinder3;whiteSpace=wrap;html=1;boundedLbl=1;backgroundOutline=1;size=15;" vertex="1" parent="1">
          <mxGeometry x="490" y="-20" width="70" height="135" as="geometry" />
        </mxCell>
        <mxCell id="r5QFwszWZXi0YmvVdmCE-7" value="REQUETE" style="text;html=1;align=center;verticalAlign=middle;whiteSpace=wrap;rounded=0;" vertex="1" parent="1">
          <mxGeometry x="630" y="20" width="60" height="30" as="geometry" />
        </mxCell>
        <mxCell id="r5QFwszWZXi0YmvVdmCE-9" value="&lt;font style=&quot;font-size: 36px;&quot;&gt;CAO&lt;/font&gt;" style="text;html=1;align=center;verticalAlign=middle;whiteSpace=wrap;rounded=0;" vertex="1" parent="1">
          <mxGeometry x="115" y="190" width="180" height="30" as="geometry" />
        </mxCell>
        <mxCell id="r5QFwszWZXi0YmvVdmCE-11" value="EST CE QU UNE FONCTION EST SELECTIONNE" style="rhombus;whiteSpace=wrap;html=1;" vertex="1" parent="1">
          <mxGeometry x="120" y="450" width="150" height="120" as="geometry" />
        </mxCell>
        <mxCell id="r5QFwszWZXi0YmvVdmCE-13" value="" style="endArrow=classic;html=1;rounded=0;exitX=0.396;exitY=0.976;exitDx=0;exitDy=0;exitPerimeter=0;" edge="1" parent="1" source="r5QFwszWZXi0YmvVdmCE-21">
          <mxGeometry width="50" height="50" relative="1" as="geometry">
            <mxPoint x="194.57999999999998" y="410" as="sourcePoint" />
            <mxPoint x="194.57999999999998" y="450" as="targetPoint" />
          </mxGeometry>
        </mxCell>
        <mxCell id="r5QFwszWZXi0YmvVdmCE-16" value="" style="endArrow=classic;html=1;rounded=0;" edge="1" parent="1">
          <mxGeometry relative="1" as="geometry">
            <mxPoint x="610" y="54.66" as="sourcePoint" />
            <mxPoint x="710" y="54.66" as="targetPoint" />
          </mxGeometry>
        </mxCell>
        <mxCell id="r5QFwszWZXi0YmvVdmCE-17" value="Label" style="edgeLabel;resizable=0;html=1;;align=center;verticalAlign=middle;" connectable="0" vertex="1" parent="r5QFwszWZXi0YmvVdmCE-16">
          <mxGeometry relative="1" as="geometry" />
        </mxCell>
        <mxCell id="r5QFwszWZXi0YmvVdmCE-18" value="VARIABLE PROGRAMME" style="rounded=1;whiteSpace=wrap;html=1;" vertex="1" parent="1">
          <mxGeometry x="740" y="20" width="120" height="60" as="geometry" />
        </mxCell>
        <mxCell id="r5QFwszWZXi0YmvVdmCE-19" value="CONDITION" style="rhombus;whiteSpace=wrap;html=1;" vertex="1" parent="1">
          <mxGeometry x="890" y="-5" width="130" height="120" as="geometry" />
        </mxCell>
        <mxCell id="r5QFwszWZXi0YmvVdmCE-20" value="ACTION UTILISATEUR" style="shape=parallelogram;perimeter=parallelogramPerimeter;whiteSpace=wrap;html=1;fixedSize=1;" vertex="1" parent="1">
          <mxGeometry x="150" y="25" width="120" height="60" as="geometry" />
        </mxCell>
        <mxCell id="r5QFwszWZXi0YmvVdmCE-21" value="CLID GAUCHE SUR ELEMENT 3D" style="shape=parallelogram;perimeter=parallelogramPerimeter;whiteSpace=wrap;html=1;fixedSize=1;" vertex="1" parent="1">
          <mxGeometry x="130" y="310" width="165" height="70" as="geometry" />
        </mxCell>
        <mxCell id="r5QFwszWZXi0YmvVdmCE-22" value="" style="endArrow=classic;html=1;rounded=0;exitX=1;exitY=0.5;exitDx=0;exitDy=0;" edge="1" parent="1" source="r5QFwszWZXi0YmvVdmCE-11">
          <mxGeometry width="50" height="50" relative="1" as="geometry">
            <mxPoint x="280" y="520" as="sourcePoint" />
            <mxPoint x="330" y="510" as="targetPoint" />
            <Array as="points">
              <mxPoint x="290" y="510" />
            </Array>
          </mxGeometry>
        </mxCell>
      </root>
    </mxGraphModel>
  </diagram>
</mxfile>
